<mxfile host="app.diagrams.net" modified="2021-06-15T11:34:13.210Z" agent="5.0 (Macintosh; Intel Mac OS X 10_15_7) AppleWebKit/537.36 (KHTML, like Gecko) Chrome/91.0.4472.101 Safari/537.36" etag="b_KX9c2Iollm8qPEZSdB" version="14.7.8" type="github">
  <diagram id="4QEDrVtRcObc1ZmQoq7e" name="Page-1">
    <mxGraphModel dx="946" dy="621" grid="1" gridSize="10" guides="1" tooltips="1" connect="1" arrows="1" fold="1" page="1" pageScale="1" pageWidth="827" pageHeight="1169" math="0" shadow="0">
      <root>
        <mxCell id="0" />
        <mxCell id="1" parent="0" />
        <mxCell id="oy3O1JCZGX5kReIiglSY-2" style="edgeStyle=orthogonalEdgeStyle;rounded=0;orthogonalLoop=1;jettySize=auto;html=1;entryX=0.5;entryY=0;entryDx=0;entryDy=0;" edge="1" parent="1" source="oy3O1JCZGX5kReIiglSY-1" target="oy3O1JCZGX5kReIiglSY-11">
          <mxGeometry relative="1" as="geometry">
            <mxPoint x="270" y="240" as="targetPoint" />
            <Array as="points">
              <mxPoint x="270" y="140" />
            </Array>
          </mxGeometry>
        </mxCell>
        <mxCell id="oy3O1JCZGX5kReIiglSY-1" value="-a+5ab+3a-c-2a" style="rounded=0;whiteSpace=wrap;html=1;" vertex="1" parent="1">
          <mxGeometry x="210" y="20" width="120" height="30" as="geometry" />
        </mxCell>
        <mxCell id="oy3O1JCZGX5kReIiglSY-5" style="edgeStyle=orthogonalEdgeStyle;rounded=0;orthogonalLoop=1;jettySize=auto;html=1;entryX=0;entryY=0.5;entryDx=0;entryDy=0;" edge="1" parent="1" source="oy3O1JCZGX5kReIiglSY-3" target="oy3O1JCZGX5kReIiglSY-4">
          <mxGeometry relative="1" as="geometry" />
        </mxCell>
        <mxCell id="oy3O1JCZGX5kReIiglSY-3" value="a [-1 +3 -2]&lt;br&gt;ab [+5]&lt;br&gt;c [-1]" style="whiteSpace=wrap;html=1;aspect=fixed;" vertex="1" parent="1">
          <mxGeometry x="205" y="240" width="130" height="130" as="geometry" />
        </mxCell>
        <mxCell id="oy3O1JCZGX5kReIiglSY-6" style="edgeStyle=orthogonalEdgeStyle;rounded=0;orthogonalLoop=1;jettySize=auto;html=1;" edge="1" parent="1" source="oy3O1JCZGX5kReIiglSY-4" target="oy3O1JCZGX5kReIiglSY-7">
          <mxGeometry relative="1" as="geometry">
            <mxPoint x="590" y="305" as="targetPoint" />
          </mxGeometry>
        </mxCell>
        <mxCell id="oy3O1JCZGX5kReIiglSY-4" value="ab +5&lt;br&gt;c -1" style="rounded=0;whiteSpace=wrap;html=1;" vertex="1" parent="1">
          <mxGeometry x="414" y="275" width="120" height="60" as="geometry" />
        </mxCell>
        <mxCell id="oy3O1JCZGX5kReIiglSY-7" value="-c + 5ab" style="rounded=1;whiteSpace=wrap;html=1;" vertex="1" parent="1">
          <mxGeometry x="580" y="275" width="120" height="60" as="geometry" />
        </mxCell>
        <mxCell id="oy3O1JCZGX5kReIiglSY-8" value="拆解" style="text;html=1;strokeColor=none;fillColor=none;align=center;verticalAlign=middle;whiteSpace=wrap;rounded=0;" vertex="1" parent="1">
          <mxGeometry x="250" y="350" width="40" height="20" as="geometry" />
        </mxCell>
        <mxCell id="oy3O1JCZGX5kReIiglSY-9" value="運算" style="text;html=1;strokeColor=none;fillColor=none;align=center;verticalAlign=middle;whiteSpace=wrap;rounded=0;" vertex="1" parent="1">
          <mxGeometry x="454" y="315" width="40" height="20" as="geometry" />
        </mxCell>
        <mxCell id="oy3O1JCZGX5kReIiglSY-10" value="排序" style="text;html=1;strokeColor=none;fillColor=none;align=center;verticalAlign=middle;whiteSpace=wrap;rounded=0;" vertex="1" parent="1">
          <mxGeometry x="620" y="315" width="40" height="20" as="geometry" />
        </mxCell>
        <mxCell id="oy3O1JCZGX5kReIiglSY-14" style="edgeStyle=orthogonalEdgeStyle;rounded=0;orthogonalLoop=1;jettySize=auto;html=1;" edge="1" parent="1" source="oy3O1JCZGX5kReIiglSY-11" target="oy3O1JCZGX5kReIiglSY-13">
          <mxGeometry relative="1" as="geometry" />
        </mxCell>
        <mxCell id="oy3O1JCZGX5kReIiglSY-11" value="-a +5ab +3a -c -2a" style="rounded=1;whiteSpace=wrap;html=1;" vertex="1" parent="1">
          <mxGeometry x="210" y="80" width="120" height="50" as="geometry" />
        </mxCell>
        <mxCell id="oy3O1JCZGX5kReIiglSY-15" style="edgeStyle=orthogonalEdgeStyle;rounded=0;orthogonalLoop=1;jettySize=auto;html=1;" edge="1" parent="1" source="oy3O1JCZGX5kReIiglSY-13" target="oy3O1JCZGX5kReIiglSY-3">
          <mxGeometry relative="1" as="geometry" />
        </mxCell>
        <mxCell id="oy3O1JCZGX5kReIiglSY-13" value="- -&amp;gt; -1&lt;br&gt;+ -&amp;gt; 1" style="rounded=0;whiteSpace=wrap;html=1;" vertex="1" parent="1">
          <mxGeometry x="210" y="160" width="120" height="60" as="geometry" />
        </mxCell>
      </root>
    </mxGraphModel>
  </diagram>
</mxfile>
